<svg viewBox="0 0 88 87" xmlns="http://www.w3.org/2000/svg" xmlns:xlink="http://www.w3.org/1999/xlink"><style>:root&gt;svg{display:none}:root&gt;svg:target{display:block}</style><svg viewBox="0 0 37 22" id="arrow-down" xmlns="http://www.w3.org/2000/svg"><path d="M2 2l16.5 17.82L35 2"/></svg><svg fill="none" viewBox="0 0 54 54" id="circle" xmlns="http://www.w3.org/2000/svg"><path d="M54 27a27 27 0 11-4.984-15.63l-2.125 1.508A24.394 24.394 0 1051.394 27H54z" fill="#EFEFEF"/></svg><svg viewBox="0 0 7 15" id="facebook" xmlns="http://www.w3.org/2000/svg"><path d="M4.303 5.156V3.281c0-.517.386-.937.861-.937h.86V0h-1.72C2.876 0 1.72 1.26 1.72 2.813v2.343H0V7.5h1.721V15h2.582V7.5h1.722l.86-2.344H4.303z"/></svg><svg viewBox="0 0 13 29" id="footer-fb" xmlns="http://www.w3.org/2000/svg"><path d="M8.041 9.635V6.131c0-.967.72-1.751 1.609-1.751h1.608V0H8.041C5.376 0 3.217 2.353 3.217 5.256v4.38H0v4.379h3.217V28.03H8.04V14.015h3.217l1.608-4.38H8.041z"/></svg><svg viewBox="0 0 26 23" id="footer-twitter" xmlns="http://www.w3.org/2000/svg"><path d="M25.337 2.655a10.16 10.16 0 01-2.993.893c1.077-.7 1.898-1.8 2.285-3.127a9.88 9.88 0 01-3.294 1.37C20.382.684 19.023 0 17.541 0c-2.876 0-5.191 2.542-5.191 5.66 0 .448.035.88.12 1.29-4.318-.23-8.139-2.484-10.706-5.92a6.09 6.09 0 00-.71 2.86c0 1.96.925 3.697 2.306 4.702a4.812 4.812 0 01-2.347-.696v.062c0 2.75 1.801 5.033 4.162 5.559a4.785 4.785 0 01-1.362.186c-.332 0-.668-.02-.983-.096.673 2.24 2.583 3.888 4.853 3.941-1.767 1.506-4.01 2.413-6.44 2.413A8.93 8.93 0 010 19.885c2.3 1.616 5.028 2.539 7.968 2.539 9.559 0 14.784-8.625 14.784-16.1 0-.25-.008-.492-.019-.732 1.031-.797 1.897-1.792 2.604-2.937z"/></svg><svg viewBox="0 0 25 18" id="footer-youtube" xmlns="http://www.w3.org/2000/svg"><path d="M23.015 1.735C22.363.47 21.655.239 20.215.15 18.774.044 15.155 0 12.02 0 8.88 0 5.26.044 3.821.149c-1.437.09-2.146.32-2.804 1.586C.346 2.996 0 5.169 0 8.995v.013c0 3.81.346 6 1.017 7.248.658 1.263 1.366 1.492 2.803 1.598 1.44.092 5.06.146 8.201.146 3.135 0 6.754-.054 8.195-.144 1.44-.106 2.148-.336 2.8-1.599.678-1.248 1.02-3.438 1.02-7.247v-.013c0-3.828-.342-6-1.021-7.262zM9.014 13.909V4.091L16.524 9l-7.51 4.91z"/></svg><svg fill="none" viewBox="0 0 88 87" id="header-video" xmlns="http://www.w3.org/2000/svg"><path d="M44.697 12.483a31 31 0 1021.71 9.57l-2.185 2.09a27.976 27.976 0 11-19.593-8.637l.068-3.023z" fill="#828282"/><path d="M60 43.476L36 57.332V29.62l24 13.857z" fill="#08AE8D"/></svg><svg viewBox="0 0 26 27" id="search-icon" xmlns="http://www.w3.org/2000/svg"><path d="M17.615 21.146c1.766 1.766 5.062 5.65 6.475 4.709 1.765-1.177-2.943-5.886-4.12-7.063"/><path d="M21.147 12.318c0 5.526-4.48 10.006-10.006 10.006S1.136 17.844 1.136 12.318 5.616 2.313 11.14 2.313c5.526 0 10.006 4.48 10.006 10.005zm-18.78 0a8.775 8.775 0 1017.55 0 8.775 8.775 0 00-17.55 0z"/><path d="M5.33 17.05a8.322 8.322 0 01-1.278-8.56l.943.397a7.299 7.299 0 001.12 7.508l-.785.656z"/></svg><svg viewBox="0 0 14 12" id="twitter" xmlns="http://www.w3.org/2000/svg"><path d="M13.559 1.42a5.43 5.43 0 01-1.602.479A2.98 2.98 0 0013.18.225a5.288 5.288 0 01-1.763.733C10.907.366 10.18 0 9.387 0 7.848 0 6.609 1.36 6.609 3.029c0 .24.019.47.065.69C4.363 3.596 2.318 2.39.944.552c-.24.453-.38.972-.38 1.53 0 1.05.495 1.979 1.234 2.517a2.575 2.575 0 01-1.256-.373v.033c0 1.471.964 2.694 2.227 2.975a2.56 2.56 0 01-.728.1 2.25 2.25 0 01-.527-.052c.36 1.2 1.383 2.08 2.598 2.11A5.302 5.302 0 010 10.641 7.367 7.367 0 004.264 12c5.115 0 7.912-4.615 7.912-8.616a8.29 8.29 0 00-.01-.391 5.845 5.845 0 001.393-1.572z"/></svg></svg>