<svg width="121" height="108" fill="none" xmlns="http://www.w3.org/2000/svg"><path d="M105.399 55.944a1.972 1.972 0 00-.557-.28 44.369 44.369 0 00-13.576-29.887c2.072-8.103 2.245-14.731.412-19.248a9.897 9.897 0 00-5.42-5.698C81.821-1.016 75.91.22 68.684 4.497a1.992 1.992 0 002.032 3.427C76.629 4.417 81.65 3.208 84.731 4.51a5.99 5.99 0 013.254 3.52c1.328 3.321 1.262 8.475-.133 14.772a44.366 44.366 0 00-58.38 3.028l-.32-.066c-15.408-1.7-26.088.81-28.532 6.708a9.617 9.617 0 00.372 7.651c2.059 4.862 7.386 10.374 14.984 15.94v1.753A44.207 44.207 0 0021.86 79.88a1.967 1.967 0 00-.265.598c-3.255 13.987-1.634 23.312 4.582 26.235a9.68 9.68 0 004.185.89c4.675 0 10.28-2.843 16.152-7.559a44.4 44.4 0 0048.352-14.04l1.248.133c2.028.16 3.941.239 5.739.239 10.108 0 16.431-2.47 18.437-7.24 2.458-6.057-2.776-14.28-14.891-23.192zM60.395 17.276a40.328 40.328 0 0126.368 9.79 98.097 98.097 0 01-4.105 11.344 1.993 1.993 0 103.666 1.567c1.47-3.436 2.697-6.704 3.68-9.803a40.411 40.411 0 013.002 51.632 143.77 143.77 0 01-25.238-5.486c3.095-4.37 6.043-8.98 8.74-13.668a134.144 134.144 0 002.91-5.314 1.994 1.994 0 10-3.521-1.873 174.65 174.65 0 01-2.843 5.141 164.85 164.85 0 01-9.298 14.386 205.288 205.288 0 01-9.976-3.587 167.788 167.788 0 01-33.726-17.308 40.568 40.568 0 0140.341-36.821zM4.605 38.529a5.845 5.845 0 01-.372-4.556c1.328-3.122 8.555-5.632 21.838-4.543a44.326 44.326 0 00-9.71 21.984C10.41 46.858 6.252 42.408 4.605 38.569v-.04zM52.32 75.178c2.989 1.169 5.977 2.218 8.94 3.215a120.646 120.646 0 01-15.582 17.135A40.568 40.568 0 0119.907 58.8 174.322 174.322 0 0052.32 75.178zm-24.521 27.895c-3.826-1.807-4.902-8.7-3.042-18.676a44.766 44.766 0 0017.441 13.987c-5.712 4.357-10.892 6.376-14.4 4.716v-.027zm32.597-4.769a40.424 40.424 0 01-10.374-1.328 124.871 124.871 0 0015.29-17.269 155.3 155.3 0 0024.653 5.712 40.392 40.392 0 01-29.569 12.885zm56.136-20.722c-1.501 3.587-8.462 5.314-18.969 4.636a44.211 44.211 0 007.24-21.771c8.833 6.92 13.31 13.376 11.729 17.135z" fill="#08AE8D"/><path d="M26.11 50.179a148.136 148.136 0 0017.508 9.431 1.992 1.992 0 001.66-3.613 144.214 144.214 0 01-17.029-9.165 1.993 1.993 0 00-2.138 3.36v-.013zm34.604 10.653a1.992 1.992 0 002.723-.704 193.23 193.23 0 002.91-5.087A165.013 165.013 0 0076.892 31.9a1.993 1.993 0 00-3.746-1.329 160.843 160.843 0 01-10.281 22.582 166.752 166.752 0 01-2.843 4.981 1.992 1.992 0 00.691 2.697z" fill="#08AE8D"/></svg>