<svg width="121" height="93" fill="none" xmlns="http://www.w3.org/2000/svg"><path d="M117.98 0H2.171A2.171 2.171 0 000 2.171v69.486a2.171 2.171 0 002.171 2.171h41.257V87.58c.002.247.046.492.13.724H31.125a2.171 2.171 0 000 4.343h57.904a2.172 2.172 0 000-4.343H75.145a2.14 2.14 0 00.13-.724V73.828h42.705a2.174 2.174 0 002.172-2.171V2.17A2.172 2.172 0 00117.98 0zM71.063 88.304H47.641c.084-.232.129-.477.13-.724V73.828h23.162V87.58c.001.247.045.492.13.724zm44.746-18.819H4.343V4.343h111.466v65.142z" fill="#08AE8D"/><path d="M50.666 47.264a2.171 2.171 0 00-4.343 0c0 5.487 4.705 10.032 10.858 10.915v3.344a2.171 2.171 0 004.342 0V58.18c6.153-.883 10.857-5.443 10.857-10.915 0-5.472-4.704-10.032-10.857-10.915V22.945c3.735.752 6.515 3.387 6.515 6.514a2.171 2.171 0 004.342 0c0-5.487-4.704-10.032-10.857-10.915V15.2a2.172 2.172 0 00-4.343 0v3.344c-6.152.883-10.857 5.443-10.857 10.915 0 5.472 4.705 10.017 10.858 10.9v13.42c-3.735-.739-6.515-3.373-6.515-6.515zm17.372 0c0 3.142-2.78 5.79-6.515 6.515V40.75c3.735.753 6.515 3.402 6.515 6.514zM50.666 29.46c0-3.127 2.78-5.79 6.515-6.514v13.028c-3.735-.753-6.515-3.402-6.515-6.514z" fill="#08AE8D"/></svg>