<svg width="101" height="100" fill="none" xmlns="http://www.w3.org/2000/svg"><path d="M98.678 95.495h-5.73V17.19a1.91 1.91 0 00-1.91-1.91H73.214a1.91 1.91 0 00-1.91 1.91v78.306H61.117v-49.02a1.91 1.91 0 00-1.91-1.91H41.381a1.91 1.91 0 00-1.91 1.91v49.02H29.285v-21.01a1.91 1.91 0 00-1.91-1.91H9.55a1.91 1.91 0 00-1.91 1.91v21.01H1.91a1.91 1.91 0 000 3.82h96.768a1.91 1.91 0 000-3.82zM75.123 19.1h14.006v76.396H75.123V19.1zM43.29 48.384h14.006v47.111H43.291v-47.11zM11.46 76.396h14.006v19.1H11.46v-19.1zM3.183 59.844a1.91 1.91 0 001.35-.56L57.297 6.518v8.124a1.91 1.91 0 003.82 0V1.91A1.898 1.898 0 0059.933.166 1.897 1.897 0 0059.207 0H46.474a1.91 1.91 0 000 3.82h8.124L1.834 56.584a1.91 1.91 0 001.35 3.26z" fill="#08AE8D"/></svg>