<svg width="121" height="108" viewBox="0 0 121 108" fill="none" xmlns="http://www.w3.org/2000/svg">
<path d="M105.399 55.9435C105.229 55.8215 105.041 55.7273 104.842 55.6646C104.304 44.3328 99.4458 33.6375 91.2659 25.777C93.3381 17.6741 93.5108 11.0457 91.6777 6.52933C91.2117 5.25952 90.4904 4.0987 89.5583 3.11857C88.6261 2.13845 87.5029 1.35981 86.2581 0.830757C81.8214 -1.01563 75.9103 0.219721 68.6841 4.49697C68.2394 4.77122 67.9202 5.20916 67.7953 5.71647C67.6704 6.22378 67.7497 6.75987 68.0162 7.20926C68.2827 7.65865 68.715 7.98538 69.2201 8.11909C69.7252 8.25279 70.2626 8.18276 70.7165 7.92409C76.6276 4.41727 81.6487 3.20848 84.7305 4.51026C85.4861 4.84132 86.1652 5.32486 86.7252 5.93058C87.2852 6.53631 87.714 7.25116 87.9849 8.03035C89.3132 11.3512 89.2468 16.5052 87.8521 22.8015C79.4064 16.1458 68.831 12.7839 58.0925 13.341C47.3539 13.8981 37.1832 18.3363 29.4716 25.8301L29.1528 25.7637C13.744 24.0634 3.06419 26.574 0.620041 32.4718C0.154547 33.7046 -0.0526377 35.0199 0.0113433 36.336C0.0753244 37.6522 0.409106 38.9412 0.991976 40.123C3.0509 44.9848 8.37754 50.4974 15.9756 56.0631C15.9756 56.6476 15.9756 57.2188 15.9756 57.8165C15.971 65.5595 18.0003 73.1679 21.8602 79.8802C21.7389 80.0632 21.6491 80.2653 21.5945 80.478C18.3401 94.4654 19.9607 103.79 26.1773 106.713C27.4881 107.318 28.9178 107.622 30.3616 107.603C35.0373 107.603 40.6429 104.76 46.5142 100.044C55.0475 102.874 64.2386 103.046 72.8721 100.539C81.5056 98.032 89.1749 92.9635 94.8657 86.0039L96.1143 86.1367C98.1423 86.2961 100.055 86.3758 101.853 86.3758C111.961 86.3758 118.284 83.9051 120.29 79.1363C122.748 73.0791 117.514 64.8567 105.399 55.9435ZM60.3953 17.2756C70.0745 17.2689 79.4333 20.7437 86.7628 27.0655C85.6287 30.9274 84.2579 34.7159 82.6583 38.4095C82.4504 38.8956 82.4442 39.4445 82.641 39.9352C82.8378 40.426 83.2215 40.8184 83.7077 41.0263C84.1938 41.2342 84.7427 41.2404 85.2334 41.0436C85.7242 40.8468 86.1166 40.4631 86.3245 39.9769C87.7945 36.5409 89.021 33.2732 90.004 30.1738C96.4623 37.0712 100.299 46.0138 100.848 55.4468C101.396 64.8799 98.6215 74.2069 93.006 81.8063C84.4457 80.7385 75.9988 78.9025 67.7676 76.3203C70.8626 71.95 73.8115 67.3407 76.5081 62.6517C77.5043 60.9248 78.474 59.1581 79.4171 57.3383C79.5401 57.1072 79.6163 56.8541 79.6415 56.5935C79.6667 56.3329 79.6403 56.0699 79.5638 55.8195C79.4873 55.5691 79.3623 55.3362 79.1958 55.1341C79.0293 54.9321 78.8247 54.7648 78.5936 54.6418C78.3624 54.5188 78.1093 54.4425 77.8487 54.4174C77.5881 54.3922 77.3251 54.4186 77.0747 54.4951C76.8243 54.5716 76.5914 54.6966 76.3894 54.8631C76.1873 55.0296 76.02 55.2342 75.897 55.4653C74.9805 57.1922 74.0241 58.919 73.0544 60.606C70.2063 65.5592 67.1027 70.361 63.756 74.9919C60.506 73.9204 57.1807 72.7249 53.7802 71.4054C41.9202 66.9286 30.6059 61.1221 20.0536 54.0972C20.9864 44.0387 25.6383 34.6901 33.0993 27.8801C40.5603 21.0701 50.2937 17.2887 60.3953 17.2756ZM4.60506 38.529C4.2401 37.8335 4.01907 37.0716 3.95517 36.2888C3.89127 35.506 3.9858 34.7183 4.23312 33.9728C5.56146 30.8512 12.7876 28.3407 26.071 29.4299C20.8716 35.7239 17.5114 43.3315 16.3609 51.4139C10.4099 46.8577 6.2522 42.4078 4.60506 38.5689V38.529ZM52.319 75.1779C55.3078 76.3468 58.2965 77.3962 61.2587 78.3925C56.6265 84.5908 51.4086 90.3291 45.6773 95.5281C38.2454 92.6196 31.8365 87.5837 27.2527 81.0506C22.6689 74.5175 20.1139 66.7775 19.9075 58.7995C30.1117 65.3725 40.9744 70.8617 52.319 75.1779ZM27.7979 103.073C23.9722 101.266 22.8963 94.3724 24.756 84.3966C29.2931 90.4591 35.2939 95.2717 42.1971 98.384C36.4852 102.741 31.3047 104.76 27.7979 103.1V103.073ZM60.3953 98.3043C56.8943 98.3126 53.407 97.8661 50.021 96.9759C55.6392 91.7038 60.7574 85.923 65.3102 79.7075C73.3591 82.279 81.6045 84.1893 89.9641 85.4194C86.1849 89.483 81.6089 92.7243 76.5215 94.9411C71.4342 97.158 65.9447 98.3028 60.3953 98.3043ZM116.531 77.5822C115.03 81.1687 108.069 82.8955 97.5622 82.2181C101.849 75.7245 104.347 68.2144 104.802 60.4466C113.635 67.3673 118.112 73.823 116.531 77.5822Z" fill="#08AE8D"/>
<path d="M26.1108 50.179C31.7288 53.7113 37.5778 56.8622 43.6183 59.6102C44.0907 59.7906 44.6141 59.7847 45.0823 59.5935C45.5505 59.4024 45.9285 59.0404 46.1397 58.5808C46.3508 58.1213 46.3794 57.5987 46.2195 57.1189C46.0596 56.6392 45.7233 56.2381 45.2787 55.9971C39.4036 53.3264 33.7144 50.2644 28.2494 46.8316C27.8041 46.5654 27.2725 46.4833 26.7677 46.6029C26.2628 46.7225 25.8245 47.0343 25.546 47.472C25.2674 47.9098 25.1706 48.4389 25.2761 48.9468C25.3816 49.4548 25.681 49.9016 26.1108 50.1923V50.179Z" fill="#08AE8D"/>
<path d="M60.7141 60.832C61.1688 61.0988 61.7107 61.1745 62.2211 61.0425C62.7315 60.9105 63.1688 60.5817 63.4372 60.128C64.4334 58.4543 65.4031 56.7407 66.3462 55.0405C70.4519 47.61 73.9781 39.8738 76.8933 31.9008C77.0265 31.4154 76.9712 30.8975 76.7383 30.4513C76.5054 30.005 76.1122 29.6635 75.6378 29.4953C75.1634 29.327 74.6429 29.3446 74.1809 29.5444C73.7189 29.7442 73.3496 30.1115 73.1473 30.5724C70.3068 38.3532 66.8694 45.9029 62.866 53.1542C61.9494 54.8279 60.993 56.5016 60.0234 58.1355C59.7638 58.5862 59.6907 59.1205 59.8198 59.6244C59.9488 60.1282 60.2698 60.5616 60.7141 60.832Z" fill="#08AE8D"/>
</svg>
