<svg width="121" height="93" viewBox="0 0 121 93" fill="none" xmlns="http://www.w3.org/2000/svg">
<path d="M117.98 0H2.17142C1.59552 0 1.04321 0.228775 0.635993 0.635994C0.228773 1.04321 0 1.59552 0 2.17142V71.6567C0 72.2326 0.228773 72.7849 0.635993 73.1921C1.04321 73.5993 1.59552 73.8281 2.17142 73.8281H43.4283V87.5804C43.43 87.8274 43.4741 88.0722 43.5586 88.3042H31.1236C30.5477 88.3042 29.9954 88.533 29.5882 88.9402C29.181 89.3474 28.9522 89.8997 28.9522 90.4756C28.9522 91.0515 29.181 91.6038 29.5882 92.0111C29.9954 92.4183 30.5477 92.6471 31.1236 92.6471H89.028C89.6039 92.6471 90.1562 92.4183 90.5635 92.0111C90.9707 91.6038 91.1995 91.0515 91.1995 90.4756C91.1995 89.8997 90.9707 89.3474 90.5635 88.9402C90.1562 88.533 89.6039 88.3042 89.028 88.3042H75.1455C75.2303 88.0723 75.2744 87.8274 75.2757 87.5804V73.8281H117.98C118.556 73.8281 119.108 73.5993 119.516 73.1921C119.923 72.7849 120.152 72.2326 120.152 71.6567V2.17142C120.152 1.59552 119.923 1.04321 119.516 0.635994C119.108 0.228775 118.556 0 117.98 0ZM71.0632 88.3042H47.6409C47.7254 88.0722 47.7695 87.8274 47.7711 87.5804V73.8281H70.9329V87.5804C70.9343 87.8274 70.9784 88.0723 71.0632 88.3042ZM115.809 69.4853H4.34283V4.34283H115.809V69.4853Z" fill="#08AE8D"/>
<path d="M50.6663 47.2644C50.6663 46.6885 50.4375 46.1362 50.0303 45.729C49.6231 45.3218 49.0708 45.093 48.4949 45.093C47.919 45.093 47.3667 45.3218 46.9594 45.729C46.5522 46.1362 46.3234 46.6885 46.3234 47.2644C46.3234 52.7509 51.0282 57.2964 57.1805 58.1794V61.5234C57.1805 62.0993 57.4093 62.6516 57.8165 63.0588C58.2237 63.466 58.776 63.6948 59.3519 63.6948C59.9278 63.6948 60.4801 63.466 60.8874 63.0588C61.2946 62.6516 61.5234 62.0993 61.5234 61.5234V58.1794C67.6757 57.2964 72.3804 52.7364 72.3804 47.2644C72.3804 41.7925 67.6757 37.2325 61.5234 36.3494V22.9446C65.2582 23.6973 68.0376 26.332 68.0376 29.4588C68.0376 30.0347 68.2664 30.587 68.6736 30.9942C69.0808 31.4015 69.6331 31.6302 70.209 31.6302C70.7849 31.6302 71.3372 31.4015 71.7444 30.9942C72.1517 30.587 72.3804 30.0347 72.3804 29.4588C72.3804 23.9724 67.6757 19.4269 61.5234 18.5438V15.1999C61.5234 14.624 61.2946 14.0717 60.8874 13.6644C60.4801 13.2572 59.9278 13.0284 59.3519 13.0284C58.776 13.0284 58.2237 13.2572 57.8165 13.6644C57.4093 14.0717 57.1805 14.624 57.1805 15.1999V18.5438C51.0282 19.4269 46.3234 23.9868 46.3234 29.4588C46.3234 34.9308 51.0282 39.4763 57.1805 40.3593V53.7787C53.4457 53.0404 50.6663 50.4057 50.6663 47.2644ZM68.0376 47.2644C68.0376 50.4057 65.2582 53.0549 61.5234 53.7787V40.7502C65.2582 41.5029 68.0376 44.1521 68.0376 47.2644ZM50.6663 29.4588C50.6663 26.332 53.4457 23.6684 57.1805 22.9446V35.9731C53.4457 35.2203 50.6663 32.5712 50.6663 29.4588Z" fill="#08AE8D"/>
</svg>
