<svg width="101" height="100" viewBox="0 0 101 100" fill="none" xmlns="http://www.w3.org/2000/svg">
<path d="M98.6783 95.4954H92.9486V17.1893C92.9486 16.6828 92.7474 16.197 92.3892 15.8388C92.0311 15.4806 91.5453 15.2794 91.0387 15.2794H73.213C72.7064 15.2794 72.2206 15.4806 71.8624 15.8388C71.5043 16.197 71.3031 16.6828 71.3031 17.1893V95.4954H61.1169V46.4745C61.1169 45.968 60.9157 45.4822 60.5575 45.124C60.1993 44.7658 59.7135 44.5646 59.207 44.5646H41.3812C40.8747 44.5646 40.3889 44.7658 40.0307 45.124C39.6726 45.4822 39.4713 45.968 39.4713 46.4745V95.4954H29.2852V74.4864C29.2852 73.9799 29.084 73.4941 28.7258 73.1359C28.3676 72.7777 27.8818 72.5765 27.3753 72.5765H9.54952C9.04298 72.5765 8.55719 72.7777 8.19901 73.1359C7.84084 73.4941 7.63961 73.9799 7.63961 74.4864V95.4954H1.9099C1.40337 95.4954 0.917574 95.6966 0.559397 96.0547C0.201221 96.4129 0 96.8987 0 97.4053C0 97.9118 0.201221 98.3976 0.559397 98.7558C0.917574 99.1139 1.40337 99.3152 1.9099 99.3152H98.6783C99.1849 99.3152 99.6707 99.1139 100.029 98.7558C100.387 98.3976 100.588 97.9118 100.588 97.4053C100.588 96.8987 100.387 96.4129 100.029 96.0547C99.6707 95.6966 99.1849 95.4954 98.6783 95.4954ZM75.1229 19.0992H89.1288V95.4954H75.1229V19.0992ZM43.2911 48.3844H57.2971V95.4954H43.2911V48.3844ZM11.4594 76.3963H25.4654V95.4954H11.4594V76.3963Z" fill="#08AE8D"/>
<path d="M3.18319 59.8436C3.68955 59.8432 4.17502 59.6417 4.53285 59.2834L57.2971 6.51914V14.6426C57.2971 15.1491 57.4983 15.6349 57.8565 15.9931C58.2147 16.3513 58.7005 16.5525 59.207 16.5525C59.7135 16.5525 60.1993 16.3513 60.5575 15.9931C60.9157 15.6349 61.1169 15.1491 61.1169 14.6426V1.9099C61.115 1.66971 61.0674 1.43207 60.9769 1.20961C60.8808 0.974992 60.739 0.761843 60.5598 0.582587C60.3805 0.403331 60.1674 0.261555 59.9328 0.165525C59.7042 0.0629641 59.4575 0.00670618 59.207 0H46.4743C45.9678 0 45.482 0.201221 45.1238 0.559398C44.7656 0.917574 44.5644 1.40337 44.5644 1.9099C44.5644 2.41644 44.7656 2.90223 45.1238 3.26041C45.482 3.61859 45.9678 3.81981 46.4743 3.81981H54.5978L1.83352 56.5841C1.56676 56.8512 1.38513 57.1913 1.31157 57.5616C1.23802 57.9319 1.27584 58.3156 1.42025 58.6644C1.56467 59.0132 1.80921 59.3113 2.12298 59.5212C2.43675 59.7311 2.80569 59.8433 3.18319 59.8436Z" fill="#08AE8D"/>
</svg>
