<svg width="26" height="23" xmlns="http://www.w3.org/2000/svg"><path d="M25.337 2.655a10.16 10.16 0 01-2.993.893c1.077-.7 1.898-1.8 2.285-3.127a9.88 9.88 0 01-3.294 1.37C20.382.684 19.023 0 17.541 0c-2.876 0-5.191 2.542-5.191 5.66 0 .448.035.88.12 1.29-4.318-.23-8.139-2.484-10.706-5.92a6.09 6.09 0 00-.71 2.86c0 1.96.925 3.697 2.306 4.702a4.812 4.812 0 01-2.347-.696v.062c0 2.75 1.801 5.033 4.162 5.559a4.785 4.785 0 01-1.362.186c-.332 0-.668-.02-.983-.096.673 2.24 2.583 3.888 4.853 3.941-1.767 1.506-4.01 2.413-6.44 2.413A8.93 8.93 0 010 19.885c2.3 1.616 5.028 2.539 7.968 2.539 9.559 0 14.784-8.625 14.784-16.1 0-.25-.008-.492-.019-.732 1.031-.797 1.897-1.792 2.604-2.937z"/></svg>