<svg width="14" height="12" xmlns="http://www.w3.org/2000/svg"><path d="M13.559 1.42a5.43 5.43 0 01-1.602.479A2.98 2.98 0 0013.18.225a5.288 5.288 0 01-1.763.733C10.907.366 10.18 0 9.387 0 7.848 0 6.609 1.36 6.609 3.029c0 .24.019.47.065.69C4.363 3.596 2.318 2.39.944.552c-.24.453-.38.972-.38 1.53 0 1.05.495 1.979 1.234 2.517a2.575 2.575 0 01-1.256-.373v.033c0 1.471.964 2.694 2.227 2.975a2.56 2.56 0 01-.728.1 2.25 2.25 0 01-.527-.052c.36 1.2 1.383 2.08 2.598 2.11A5.302 5.302 0 010 10.641 7.367 7.367 0 004.264 12c5.115 0 7.912-4.615 7.912-8.616a8.29 8.29 0 00-.01-.391 5.845 5.845 0 001.393-1.572z"/></svg>