<?xml version="1.0" encoding="utf-8"?><svg viewBox="0 0 88 87" xmlns="http://www.w3.org/2000/svg" xmlns:xlink="http://www.w3.org/1999/xlink"><style>:root>svg{display:none}:root>svg:target{display:block}</style><svg fill="none" viewBox="0 0 88 87" id="header-video" xmlns="http://www.w3.org/2000/svg"><path d="M44.697 12.483a31 31 0 1021.71 9.57l-2.185 2.09a27.976 27.976 0 11-19.593-8.637l.068-3.023z" fill="#828282"/><path d="M60 43.476L36 57.332V29.62l24 13.857z" fill="#08AE8D"/></svg><svg viewBox="0 0 26 27" id="search-icon" xmlns="http://www.w3.org/2000/svg"><path d="M17.615 21.146c1.766 1.766 5.062 5.65 6.475 4.709 1.765-1.177-2.943-5.886-4.12-7.063"/><path d="M21.147 12.318c0 5.526-4.48 10.006-10.006 10.006S1.136 17.844 1.136 12.318 5.616 2.313 11.14 2.313c5.526 0 10.006 4.48 10.006 10.005zm-18.78 0a8.775 8.775 0 1017.55 0 8.775 8.775 0 00-17.55 0z"/><path d="M5.33 17.05a8.322 8.322 0 01-1.278-8.56l.943.397a7.299 7.299 0 001.12 7.508l-.785.656z"/></svg></svg>