<?xml version="1.0" encoding="utf-8"?><svg viewBox="0 0 88 87" xmlns="http://www.w3.org/2000/svg" xmlns:xlink="http://www.w3.org/1999/xlink"><style>:root>svg{display:none}:root>svg:target{display:block}</style><svg fill="none" viewBox="0 0 54 54" id="circle" xmlns="http://www.w3.org/2000/svg"><path d="M54 27a27 27 0 11-4.984-15.63l-2.125 1.508A24.394 24.394 0 1051.394 27H54z" fill="#EFEFEF"/></svg><svg viewBox="0 0 7 15" id="facebook" xmlns="http://www.w3.org/2000/svg"><path d="M4.303 5.156V3.281c0-.517.386-.937.861-.937h.86V0h-1.72C2.876 0 1.72 1.26 1.72 2.813v2.343H0V7.5h1.721V15h2.582V7.5h1.722l.86-2.344H4.303z"/></svg><svg fill="none" viewBox="0 0 88 87" id="header-video" xmlns="http://www.w3.org/2000/svg"><path d="M44.697 12.483a31 31 0 1021.71 9.57l-2.185 2.09a27.976 27.976 0 11-19.593-8.637l.068-3.023z" fill="#828282"/><path d="M60 43.476L36 57.332V29.62l24 13.857z" fill="#08AE8D"/></svg><svg viewBox="0 0 26 27" id="search-icon" xmlns="http://www.w3.org/2000/svg"><path d="M17.615 21.146c1.766 1.766 5.062 5.65 6.475 4.709 1.765-1.177-2.943-5.886-4.12-7.063"/><path d="M21.147 12.318c0 5.526-4.48 10.006-10.006 10.006S1.136 17.844 1.136 12.318 5.616 2.313 11.14 2.313c5.526 0 10.006 4.48 10.006 10.005zm-18.78 0a8.775 8.775 0 1017.55 0 8.775 8.775 0 00-17.55 0z"/><path d="M5.33 17.05a8.322 8.322 0 01-1.278-8.56l.943.397a7.299 7.299 0 001.12 7.508l-.785.656z"/></svg><svg viewBox="0 0 14 12" id="twitter" xmlns="http://www.w3.org/2000/svg"><path d="M13.559 1.42a5.43 5.43 0 01-1.602.479A2.98 2.98 0 0013.18.225a5.288 5.288 0 01-1.763.733C10.907.366 10.18 0 9.387 0 7.848 0 6.609 1.36 6.609 3.029c0 .24.019.47.065.69C4.363 3.596 2.318 2.39.944.552c-.24.453-.38.972-.38 1.53 0 1.05.495 1.979 1.234 2.517a2.575 2.575 0 01-1.256-.373v.033c0 1.471.964 2.694 2.227 2.975a2.56 2.56 0 01-.728.1c-.178 0-.358-.011-.527-.052.36 1.2 1.383 2.08 2.598 2.11A5.302 5.302 0 010 10.641 7.367 7.367 0 004.264 12c5.115 0 7.912-4.615 7.912-8.616 0-.134-.004-.263-.01-.391a5.845 5.845 0 001.393-1.572z"/></svg></svg>