<svg width="54" height="54" viewBox="0 0 54 54" fill="none" xmlns="http://www.w3.org/2000/svg">
<path d="M54 27C54 33.4415 51.6971 39.6707 47.507 44.5632C43.3168 49.4556 37.5157 52.6888 31.1507 53.679C24.7858 54.6693 18.2766 53.3514 12.7982 49.9632C7.31975 46.575 3.23317 41.3398 1.2762 35.2028C-0.680777 29.0658 -0.379186 22.4313 2.12652 16.4971C4.63223 10.563 9.17694 5.72017 14.9402 2.84301C20.7034 -0.0341533 27.3054 -0.756073 33.5542 0.807583C39.803 2.37124 45.2869 6.11743 49.0159 11.3698L46.8911 12.8783C43.522 8.13283 38.5674 4.74818 32.9216 3.33544C27.2759 1.92269 21.3111 2.57494 16.1041 5.17442C10.8971 7.77391 6.79096 12.1493 4.52708 17.5108C2.26321 22.8722 1.99072 28.8664 3.75883 34.4111C5.52693 39.9559 9.21911 44.6858 14.1688 47.747C19.1185 50.8082 24.9995 51.9989 30.7501 51.1042C36.5008 50.2095 41.7421 47.2884 45.5278 42.8681C49.3135 38.4479 51.3942 32.8198 51.3942 27H54Z" fill="#EFEFEF"/>
</svg>
