<svg width="26" height="23" viewBox="0 0 26 23" xmlns="http://www.w3.org/2000/svg">
<path d="M25.3367 2.65462C24.3945 3.10482 23.3905 3.40322 22.3438 3.54812C23.4206 2.84781 24.2424 1.74732 24.6288 0.420875C23.6249 1.07289 22.5164 1.53343 21.3351 1.79044C20.3818 0.684785 19.0231 0 17.5409 0C14.6652 0 12.35 2.5425 12.35 5.65939C12.35 6.10787 12.3849 6.53909 12.4704 6.94962C8.15207 6.7202 4.33099 4.46576 1.76407 1.03149C1.31592 1.87841 1.05306 2.84781 1.05306 3.89137C1.05306 5.85086 1.97943 7.58783 3.36028 8.59344C2.52575 8.5762 1.70706 8.31229 1.01347 7.89659C1.01347 7.91383 1.01347 7.93626 1.01347 7.95868C1.01347 10.7082 2.81395 12.9919 5.17501 13.518C4.75221 13.6439 4.2914 13.7043 3.81317 13.7043C3.48062 13.7043 3.14491 13.6836 2.82979 13.6077C3.50279 15.8484 5.41255 17.4956 7.68334 17.5491C5.91611 19.055 3.67223 19.9623 1.24308 19.9623C0.817107 19.9623 0.408554 19.9416 0 19.8846C2.30089 21.5009 5.02774 22.4237 7.96838 22.4237C17.5266 22.4237 22.7523 13.7992 22.7523 6.32348C22.7523 6.07337 22.7444 5.83188 22.7333 5.59212C23.7642 4.79522 24.6304 3.79995 25.3367 2.65462Z"/>
</svg>
