<svg width="25" height="18" viewBox="0 0 25 18"  xmlns="http://www.w3.org/2000/svg">
<path d="M23.0147 1.73455C22.3627 0.471273 21.6551 0.238909 20.2144 0.150545C18.7753 0.0441818 15.1563 0 12.0211 0C8.87987 0 5.25942 0.0441819 3.82176 0.148909C2.38409 0.238909 1.67502 0.469636 1.01703 1.73455C0.34552 2.99618 0 5.16927 0 8.99509C0 8.99836 0 9 0 9C0 9.00327 0 9.00491 0 9.00491V9.00818C0 12.8176 0.34552 15.0071 1.01703 16.2556C1.67502 17.5189 2.38259 17.748 3.82025 17.8544C5.25942 17.946 8.87987 18 12.0211 18C15.1563 18 18.7753 17.946 20.2159 17.856C21.6566 17.7496 22.3642 17.5205 23.0162 16.2573C23.6937 15.0087 24.0362 12.8193 24.0362 9.00982C24.0362 9.00982 24.0362 9.00491 24.0362 9.00164C24.0362 9.00164 24.0362 8.99836 24.0362 8.99673C24.0362 5.16927 23.6937 2.99618 23.0147 1.73455ZM9.01357 13.9091V4.09091L16.5249 9L9.01357 13.9091Z"/>
</svg>
