<svg width="88" height="87" viewBox="0 0 88 87" fill="none" xmlns="http://www.w3.org/2000/svg">
<path d="M44.6972 12.4835C37.527 12.3222 30.5227 14.6521 24.8777 19.0761C19.2328 23.5002 15.2964 29.7447 13.7394 36.7456C12.1823 43.7466 13.101 51.0708 16.3387 57.4704C19.5765 63.87 24.933 68.949 31.4957 71.8419C38.0584 74.7348 45.4211 75.2628 52.3294 73.3357C59.2377 71.4087 65.264 67.1459 69.3817 61.2737C73.4994 55.4015 75.4536 48.2833 74.9113 41.1318C74.369 33.9803 71.3638 27.2381 66.4078 22.0539L64.2224 24.1432C68.6951 28.8217 71.4071 34.9064 71.8965 41.3604C72.3859 47.8144 70.6223 54.2384 66.9063 59.5379C63.1902 64.8374 57.7516 68.6844 51.517 70.4235C45.2825 72.1626 38.6379 71.6862 32.7152 69.0754C26.7926 66.4646 21.9585 61.881 19.0365 56.1055C16.1145 50.3301 15.2855 43.7201 16.6907 37.402C18.0959 31.0838 21.6483 25.4484 26.7427 21.4558C31.8371 17.4632 38.1583 15.3606 44.6292 15.5062L44.6972 12.4835Z" fill="#828282"/>
<path d="M60 43.4758L36 57.3322L36 29.6194L60 43.4758Z" fill="#08AE8D"/>
</svg>
