<svg width="26" height="27" viewBox="0 0 26 27" xmlns="http://www.w3.org/2000/svg">
<path d="M17.6154 21.1465C19.381 22.9121 22.6769 26.7966 24.0895 25.8549C25.8551 24.6778 21.1467 19.9693 19.9696 18.7922" stroke-width="1.17711"/>
<path d="M21.1467 12.3182C21.1467 17.844 16.6671 22.3236 11.1413 22.3236C5.61545 22.3236 1.13586 17.844 1.13586 12.3182C1.13586 6.79233 5.61545 2.31274 11.1413 2.31274C16.6671 2.31274 21.1467 6.79233 21.1467 12.3182ZM2.36635 12.3182C2.36635 17.1644 6.29502 21.0931 11.1413 21.0931C15.9876 21.0931 19.9162 17.1644 19.9162 12.3182C19.9162 7.4719 15.9876 3.54323 11.1413 3.54323C6.29502 3.54323 2.36635 7.4719 2.36635 12.3182Z"/>
<path d="M5.32964 17.0506C4.35192 15.8781 3.71556 14.4593 3.49021 12.9493C3.26485 11.4394 3.45919 9.89661 4.05194 8.48974L4.99509 8.88711C4.47523 10.121 4.3048 11.474 4.50244 12.7983C4.70007 14.1225 5.25817 15.3668 6.11565 16.3951L5.32964 17.0506Z"/>
</svg>
