<svg width="14" height="12" viewBox="0 0 14 12" xmlns="http://www.w3.org/2000/svg">
<path d="M13.5589 1.42062C13.0547 1.66154 12.5174 1.82123 11.9572 1.89877C12.5335 1.524 12.9733 0.935077 13.1801 0.225231C12.6428 0.574154 12.0496 0.820615 11.4174 0.958154C10.9073 0.366462 10.1802 0 9.38698 0C7.84805 0 6.60911 1.36062 6.60911 3.02862C6.60911 3.26862 6.62775 3.49938 6.67351 3.71908C4.36257 3.59631 2.31772 2.38985 0.944037 0.552C0.704214 1.00523 0.563541 1.524 0.563541 2.08246C0.563541 3.13108 1.05929 4.06062 1.79825 4.59877C1.35165 4.58954 0.913529 4.44831 0.542355 4.22585C0.542355 4.23508 0.542355 4.24708 0.542355 4.25908C0.542355 5.73046 1.50588 6.95262 2.7694 7.23415C2.54314 7.30154 2.29654 7.33385 2.04061 7.33385C1.86265 7.33385 1.683 7.32277 1.51436 7.28215C1.87451 8.48123 2.89652 9.36277 4.11173 9.39138C3.166 10.1972 1.96519 10.6828 0.665233 10.6828C0.437274 10.6828 0.218637 10.6717 0 10.6412C1.23132 11.5062 2.69059 12 4.26427 12C9.37935 12 12.1759 7.38462 12.1759 3.384C12.1759 3.25015 12.1716 3.12092 12.1657 2.99262C12.7174 2.56615 13.1809 2.03354 13.5589 1.42062Z"/>
</svg>
